<?xml version="1.0" encoding="UTF-8" standalone="no"?>
<svg
   xmlns:dc="http://purl.org/dc/elements/1.1/"
   xmlns:cc="http://creativecommons.org/ns#"
   xmlns:rdf="http://www.w3.org/1999/02/22-rdf-syntax-ns#"
   xmlns:svg="http://www.w3.org/2000/svg"
   xmlns="http://www.w3.org/2000/svg"
   viewBox="0 0 2666.6667 2666.6667"
   height="2666.6667"
   width="2666.6667"
   xml:space="preserve"
   id="svg2"
   version="1.1"><metadata
     id="metadata8"><rdf:RDF><cc:Work
         rdf:about=""><dc:format>image/svg+xml</dc:format><dc:type
           rdf:resource="http://purl.org/dc/dcmitype/StillImage" /></cc:Work></rdf:RDF></metadata><defs
     id="defs6"><clipPath
       id="clipPath22"
       clipPathUnits="userSpaceOnUse"><path
         id="path20"
         d="M 0,2000 H 2000 V 0 H 0 Z" /></clipPath></defs><g
     transform="matrix(1.3333333,0,0,-1.3333333,0,2666.6667)"
     id="g10"><g
       id="text14"
       style="font-variant:normal;font-weight:normal;font-stretch:normal;font-size:184.001297px;font-family:Dense;-inkscape-font-specification:Dense-Regular;writing-mode:lr-tb;fill:#000000;fill-opacity:1;fill-rule:nonzero;stroke:none"
       transform="matrix(1,0,0,-1,365.8452,601.5015)"
       aria-label="CROWSTORM"><path
         id="path32"
         style=""
         d="m 118.50474,-123.80556 v 19.13685 q -9.16413,-8.53521 -19.586074,-12.7579 -10.332104,-4.22268 -22.011874,-4.22268 -23.000162,0 -35.218998,14.10556 -12.218836,14.015727 -12.218836,40.609664 0,26.504094 12.218836,40.609662 12.218836,14.015723 35.218998,14.015723 11.67977,0 22.011874,-4.222686 10.421944,-4.222686 19.586074,-12.757902 v 18.957165 q -9.5235,6.4687955 -20.214985,9.70319332 Q 87.688118,2.6054871 75.82866,2.6054871 q -30.457246,0 -47.976901,-18.5977871 -17.519655,-18.687632 -17.519655,-50.941766 0,-32.343978 17.519655,-50.941764 17.519655,-18.68763 47.976901,-18.68763 12.039147,0 22.640784,3.2344 10.691486,3.14455 20.035296,9.5235 z" /><path
         id="path34"
         style=""
         d="m 217.6455,-62.891068 q 5.83989,1.976576 11.3204,8.445372 5.57035,6.468795 11.1407,17.789188 L 258.5247,0 h -19.49623 l -17.16028,-34.410399 q -6.64848,-13.476657 -12.93759,-17.879032 -6.19926,-4.402375 -16.98059,-4.402375 H 172.18425 V 0 h -18.14857 v -134.13766 h 40.96904 q 23.00016,0 34.32055,9.61334 11.3204,9.61335 11.3204,29.019741 0,12.668058 -5.92973,21.023585 -5.83989,8.355528 -17.07044,11.589926 z M 172.18425,-119.2235 v 47.617527 h 22.82047 q 13.11728,0 19.76576,-6.019574 6.73833,-6.109418 6.73833,-17.879032 0,-11.769611 -6.73833,-17.699341 -6.64848,-6.01958 -19.76576,-6.01958 z" /><path
         id="path36"
         style=""
         d="m 345.37835,-121.82898 q -19.76577,0 -31.44553,14.73448 -11.58993,14.734474 -11.58993,40.160434 0,25.336117 11.58993,40.070595 11.67976,14.734479 31.44553,14.734479 19.76576,0 31.26584,-14.734479 11.58993,-14.734478 11.58993,-40.070595 0,-25.42596 -11.58993,-40.160434 -11.50008,-14.73448 -31.26584,-14.73448 z m 0,-14.73448 q 28.21114,0 45.10188,18.95716 16.89074,18.867323 16.89074,50.672234 0,31.715068 -16.89074,50.672233 -16.89074,18.8673201 -45.10188,18.8673201 -28.30098,0 -45.28157,-18.8673201 -16.89074,-18.867321 -16.89074,-50.672233 0,-31.804911 16.89074,-50.672234 16.98059,-18.95716 45.28157,-18.95716 z" /><path
         id="path38"
         style=""
         d="m 416.98433,-134.13766 h 18.32825 l 28.21114,113.383607 28.12129,-113.383607 h 20.39467 l 28.21114,113.383607 28.12129,-113.383607 h 18.4181 L 553.09857,0 H 530.27809 L 501.97711,-116.43832 473.4066,0 h -22.82047 z" /><path
         id="path40"
         style=""
         d="m 670.89748,-129.73529 v 17.69934 q -10.3321,-4.94144 -19.49623,-7.36724 -9.16412,-2.42579 -17.69934,-2.42579 -14.82432,0 -22.91032,5.75004 -7.99615,5.75004 -7.99615,16.351675 0,8.894593 5.30082,13.476657 5.39066,4.492219 20.30483,7.277395 l 10.96102,2.24611 q 20.30483,3.863308 29.91817,13.656346 9.7032,9.703193 9.7032,26.054871 0,19.496231 -13.11728,29.5588022 -13.02744,10.0625709 -38.27371,10.0625709 -9.5235,0 -20.30483,-2.15626518 Q 596.59618,-1.7070433 585.0961,-5.9297293 V -24.617361 q 11.05086,6.199262 21.65249,9.343816 10.60164,3.144553 20.8439,3.144553 15.54308,0 23.98845,-6.109418 8.44537,-6.109418 8.44537,-17.42981 0,-9.882882 -6.10941,-15.453234 -6.01958,-5.570352 -19.85561,-8.355528 l -11.05086,-2.156265 q -20.30483,-4.042997 -29.37912,-12.668058 -9.07428,-8.625061 -9.07428,-23.98845 0,-17.789185 12.48837,-28.031445 12.57821,-10.24226 34.59009,-10.24226 9.43366,0 19.2267,1.70704 9.79303,1.70704 20.03529,5.12113 z" /><path
         id="path42"
         style=""
         d="m 705.84192,-134.13766 h 113.47345 v 15.27354 H 771.69785 V 0 h -18.23841 v -118.86412 h -47.61752 z" /><path
         id="path44"
         style=""
         d="m 903.63827,-121.82898 q -19.76577,0 -31.44554,14.73448 -11.58992,14.734474 -11.58992,40.160434 0,25.336117 11.58992,40.070595 11.67977,14.734479 31.44554,14.734479 19.76576,0 31.26584,-14.734479 11.58993,-14.734478 11.58993,-40.070595 0,-25.42596 -11.58993,-40.160434 -11.50008,-14.73448 -31.26584,-14.73448 z m 0,-14.73448 q 28.21113,0 45.10188,18.95716 16.89074,18.867323 16.89074,50.672234 0,31.715068 -16.89074,50.672233 -16.89075,18.8673201 -45.10188,18.8673201 -28.30098,0 -45.28157,-18.8673201 -16.89075,-18.867321 -16.89075,-50.672233 0,-31.804911 16.89075,-50.672234 16.98059,-18.95716 45.28157,-18.95716 z" /><path
         id="path46"
         style=""
         d="m 1050.8034,-62.891068 q 5.8399,1.976576 11.3204,8.445372 5.5703,6.468795 11.1407,17.789188 L 1091.6826,0 h -19.4963 l -17.1602,-34.410399 q -6.6485,-13.476657 -12.9376,-17.879032 -6.1993,-4.402375 -16.9806,-4.402375 h -19.7658 V 0 h -18.14855 v -134.13766 h 40.96905 q 23.0001,0 34.3205,9.61334 11.3204,9.61335 11.3204,29.019741 0,12.668058 -5.9297,21.023585 -5.8399,8.355528 -17.0704,11.589926 z m -45.4613,-56.332432 v 47.617527 h 22.8205 q 13.1173,0 19.7658,-6.019574 6.7383,-6.109418 6.7383,-17.879032 0,-11.769611 -6.7383,-17.699341 -6.6485,-6.01958 -19.7658,-6.01958 z" /><path
         id="path48"
         style=""
         d="m 1124.0906,-134.13766 h 27.0431 l 34.2308,91.281889 34.4103,-91.281889 h 27.0432 V 0 h -17.6993 v -117.78599 l -34.5901,92.000652 h -18.2384 l -34.5901,-92.000652 V 0 h -17.6095 z" /></g><g
       id="g16"><g
         clip-path="url(#clipPath22)"
         id="g18"><g
           transform="translate(1241.5664,1069.8588)"
           id="g24"><path
             id="path26"
             style="fill:#000000;fill-opacity:1;fill-rule:nonzero;stroke:none"
             d="m 0,0 -10.448,-134.51 c -45.165,-73.824 -121.826,-127.645 -240.832,-127.645 -179.229,0.857 -306.069,123.412 -306.069,312.814 0,185.974 122.555,311.099 311.1,311.099 83.988,0 152.55,-24.853 202.712,-57.875 l 17.295,-121.046 h -7.13 c -26.037,100.049 -110.026,153.185 -213.031,153.245 -150.674,0 -246.66,-113.984 -246.66,-284.532 0,-172.262 97.7,-284.532 241.792,-288.02 121.689,0.369 224.652,60.96 244.141,236.47 z" /></g><g
           transform="translate(1112.6647,1074.2899)"
           id="g28"><path
             id="path30"
             style="fill:#000000;fill-opacity:1;fill-rule:nonzero;stroke:none"
             d="m 0,0 c 32.92,-30.392 41.36,-67.125 41.36,-100.383 0,-91.078 -59.492,-153.979 -154.185,-153.979 -40.347,0 -107.044,11.528 -139.404,44.992 -6.135,25.419 -3.022,77.87 9.519,114.792 h 7.237 c -8.275,-84.853 45.445,-139.149 118.729,-135.073 60.109,3.334 110.338,44.53 110.338,110.338 0,32.179 -11.734,57.639 -32.311,76.734 l -157.726,146.486 c -33.307,30.4 -44.629,70.163 -44.629,102.038 0,69.406 50.846,139.158 144.715,139.158 21.615,0 48.747,-3.681 70.617,-8.449 H 6.892 V 235.613 h -7.929 c 0.197,52.673 -41.336,84.787 -92.643,84.787 -60.67,0 -101.272,-44.514 -101.272,-94.693 0,-21.467 7.204,-51.884 33.15,-75.92 z" /></g></g></g></g></svg>